<?xml version="1.0" encoding="utf-8"?>
<!-- Generator: Adobe Illustrator 23.0.1, SVG Export Plug-In . SVG Version: 6.00 Build 0)  -->
<svg version="1.1" id="Layer_1" xmlns="http://www.w3.org/2000/svg" xmlns:xlink="http://www.w3.org/1999/xlink" x="0px" y="0px"
	 viewBox="0 0 371 100" style="enable-background:new 0 0 371 100;" xml:space="preserve">
<style type="text/css">
	.st0{fill:#FFFFFF;}
</style>
<g>
	<path class="st0" d="M18.42,81.16c-2.92,0.18-5.61-0.39-8.07-1.7c-2.47-1.31-4.49-3.15-6.07-5.52c-1.58-2.37-2.47-5.06-2.65-8.09
		L0.03,40.18c-0.18-2.92,0.37-5.64,1.65-8.19c1.28-2.54,3.07-4.62,5.39-6.23c2.31-1.61,4.9-2.5,7.76-2.67
		c2.97-0.18,5.7,0.37,8.19,1.65c2.49,1.28,4.51,3.1,6.07,5.44c1.55,2.34,2.42,5.03,2.61,8.05l0.23,3.73
		c0.01,0.22-0.12,0.33-0.38,0.35l-9.07,0.56c-0.22,0.01-0.33-0.09-0.34-0.3l-0.19-3.08c-0.13-2.05-0.81-3.72-2.06-4.99
		c-1.24-1.28-2.73-1.86-4.46-1.76c-1.57,0.1-2.92,0.83-4.05,2.2c-1.14,1.37-1.65,2.92-1.54,4.65l1.59,25.67
		c0.11,1.78,0.8,3.27,2.06,4.46c1.27,1.2,2.71,1.74,4.33,1.64c1.73-0.11,3.13-0.82,4.22-2.13c1.08-1.31,1.57-2.89,1.46-4.72
		l-0.24-3.97l-5.67,0.35c-0.27,0.02-0.41-0.11-0.43-0.38l-0.56-9.07c-0.02-0.27,0.11-0.41,0.38-0.43l15.14-0.93
		c0.22-0.01,0.33,0.11,0.35,0.38l0.83,13.44c0.19,3.02-0.36,5.81-1.64,8.35c-1.28,2.55-3.06,4.62-5.35,6.22
		C24.01,80.08,21.38,80.97,18.42,81.16z"/>
	<path class="st0" d="M35.38,78.89l7.34-56.17c0.04-0.22,0.17-0.33,0.39-0.34l11.75-0.57c0.22-0.01,0.36,0.09,0.42,0.3l12.35,55.21
		c0.07,0.27-0.03,0.41-0.3,0.42l-9,0.44c-0.22,0.01-0.36-0.12-0.42-0.38l-1.18-5.87l-11.02,0.54l-0.6,5.96
		c-0.04,0.27-0.17,0.41-0.39,0.42l-9,0.44C35.51,79.29,35.39,79.17,35.38,78.89z M46.91,63.71l7.78-0.38l-4.43-22.61l-0.63-2.97
		l-0.18,3.01L46.91,63.71z"/>
	<path class="st0" d="M72.69,77.5c-0.22,0.01-0.33-0.12-0.34-0.39l-1.74-55.72c-0.01-0.22,0.1-0.33,0.31-0.34l9.89-0.34
		c0.22-0.01,0.41,0.1,0.58,0.3l7.74,10.45l7.01-10.96c0.16-0.22,0.34-0.34,0.56-0.34l9.97-0.34c0.22-0.01,0.33,0.1,0.34,0.31
		l2.06,55.7c0.01,0.27-0.09,0.41-0.31,0.42l-9.16,0.31c-0.22,0.01-0.33-0.12-0.34-0.39l-1.49-41.35l-8.09,12.62l-8.85-12.04
		l1.33,41.36c0.01,0.27-0.1,0.41-0.31,0.42L72.69,77.5z"/>
	<path class="st0" d="M115.82,76.12c-0.22,0-0.33-0.13-0.33-0.4l-1.04-55.73c0-0.22,0.1-0.33,0.32-0.33l26.04-0.52
		c0.22,0,0.33,0.13,0.33,0.4l0.18,9.09c0,0.22-0.1,0.33-0.32,0.33l-16.63,0.33l0.25,12.65l16.63-0.33c0.22,0,0.33,0.1,0.33,0.32
		l0.26,9.17c0,0.22-0.1,0.33-0.32,0.33l-16.71,0.34l0.29,14.2l16.71-0.34c0.22,0,0.33,0.13,0.33,0.4l0.19,9.25
		c0,0.22-0.1,0.33-0.32,0.33L115.82,76.12z"/>
	<path class="st0" d="M161.45,75.36c-0.22,0-0.33-0.13-0.33-0.4l-0.15-55.66c0-0.27,0.13-0.41,0.4-0.41l9.01-0.04
		c0.27,0,0.41,0.13,0.41,0.4l0.11,46.09l16.71-0.07c0.27,0,0.41,0.13,0.41,0.4l0.04,9.17c0,0.27-0.13,0.41-0.4,0.41L161.45,75.36z"
		/>
	<path class="st0" d="M193.34,75.26c-0.22,0-0.32-0.14-0.32-0.41l0.49-55.74c0-0.22,0.11-0.32,0.33-0.32l26.04,0.19
		c0.22,0,0.32,0.14,0.32,0.41l-0.07,9.09c0,0.22-0.11,0.32-0.33,0.32l-16.63-0.12l-0.09,12.66l16.63,0.12
		c0.21,0,0.32,0.11,0.32,0.33l0.01,9.17c0,0.22-0.11,0.32-0.33,0.32l-16.71-0.12l-0.1,14.2l16.71,0.12c0.22,0,0.32,0.14,0.32,0.41
		l-0.07,9.25c0,0.22-0.11,0.32-0.33,0.32L193.34,75.26z"/>
	<path class="st0" d="M227.48,75.55c-0.43-0.01-0.64-0.2-0.64-0.58l1.03-55.25c0.01-0.43,0.23-0.64,0.66-0.64l7.3,0.15l13.07,32.24
		l0.22-31.32c0.01-0.43,0.26-0.64,0.74-0.63l8.03,0.16c0.32,0.01,0.48,0.23,0.47,0.66l-1.03,55.33c-0.01,0.32-0.14,0.48-0.42,0.48
		l-7.14-0.14l-13.43-30.14l-0.02,29.22c-0.01,0.43-0.26,0.64-0.74,0.63L227.48,75.55z"/>
	<path class="st0" d="M264.4,76.33c-0.27-0.01-0.4-0.15-0.39-0.42l2.04-55.7c0.01-0.22,0.12-0.32,0.34-0.31l15.17,0.43
		c2.97,0.05,5.67,0.84,8.08,2.38c2.41,1.54,4.3,3.57,5.68,6.08c1.38,2.51,2.01,5.25,1.91,8.22l-0.79,23.27
		c-0.11,3.14-0.96,5.96-2.56,8.48c-1.6,2.52-3.7,4.49-6.29,5.92c-2.59,1.43-5.48,2.12-8.68,2.06L264.4,76.33z M274.22,66.68
		l5.03,0.17c2,0.07,3.71-0.58,5.14-1.94c1.43-1.36,2.17-3.01,2.24-4.96l0.79-23.35c0.06-1.73-0.53-3.25-1.75-4.57
		c-1.23-1.31-2.71-1.97-4.44-1.98l-5.68-0.11L274.22,66.68z"/>
	<path class="st0" d="M302.2,77.67c-0.22-0.01-0.32-0.15-0.3-0.42l2.71-55.68c0.01-0.22,0.12-0.32,0.34-0.31l26.02,1.23
		c0.21,0.01,0.32,0.15,0.3,0.42l-0.43,9.08c-0.01,0.22-0.12,0.32-0.34,0.31l-16.62-0.78l-0.6,12.64l16.61,0.78
		c0.21,0.01,0.32,0.12,0.31,0.34l-0.35,9.16c-0.01,0.22-0.12,0.32-0.34,0.31l-16.7-0.79l-0.67,14.18l16.7,0.79
		c0.21,0.01,0.32,0.15,0.3,0.42l-0.44,9.24c-0.01,0.22-0.13,0.32-0.34,0.31L302.2,77.67z"/>
	<path class="st0" d="M335.86,79.28c-0.22-0.01-0.32-0.15-0.3-0.42l3.57-55.63c0.01-0.22,0.13-0.32,0.34-0.3l16.36,1
		c2.92,0.18,5.56,1.06,7.93,2.64c2.37,1.58,4.21,3.62,5.52,6.11c1.31,2.49,1.87,5.25,1.69,8.27c-0.12,2-0.53,3.78-1.22,5.33
		c-0.69,1.56-1.48,2.86-2.35,3.92c-0.88,1.06-1.66,1.84-2.34,2.34c2.72,3.42,3.94,7.31,3.67,11.69l-0.94,16.61
		c-0.02,0.27-0.16,0.4-0.43,0.38l-9.15-0.56c-0.22-0.01-0.32-0.1-0.31-0.26l1.03-16.76c0.12-1.94-0.47-3.67-1.76-5.19
		c-1.29-1.51-2.93-2.33-4.93-2.46l-5.35-0.33l-1.54,23.81c-0.02,0.27-0.13,0.4-0.35,0.38L335.86,79.28z M347.49,45.93l6.96,0.43
		c1.67,0.1,3.2-0.43,4.57-1.59c1.37-1.16,2.11-2.63,2.22-4.42c0.11-1.73-0.44-3.25-1.63-4.57c-1.19-1.32-2.65-2.03-4.38-2.14
		l-6.96-0.43L347.49,45.93z"/>
</g>
</svg>
